# xmcd
#
# Track frame offsets:
#	150
#	40146
#	70841
#	93295
#	119938
#	142711
#	169122
#
# Disc length: 2561 seconds
# Revision: 0
# Processed by: cddbd v1.5.2PL0 Copyright (c) Steve Scherf et al.
# Submitted via: dBpowerAMP V12.0
#
DISCID=5b09ff07
DTITLE=Hot Tuna - Double Dose
DYEAR=1978
DGENRE=Blues
TTITLE0=Funky #7
TTITLE1=Serpent of Dreams
TTITLE2=Bowlegged Woman, Knock Kneed Man
TTITLE3=I See the Light
TTITLE4=Watch the North Wind Rise
TTITLE5=Sunrise Dance with the Devil
TTITLE6=I Can't be Satisified
EXTD=
EXTT0=
EXTT1=
EXTT2=
EXTT3=
EXTT4=
EXTT5=
EXTT6=
PLAYORDER=
